<?xml version="1.0" encoding="UTF-8"?><svg id="Layer_1" xmlns="http://www.w3.org/2000/svg" xmlns:xlink="http://www.w3.org/1999/xlink" viewBox="0 0 342.67 527.96"><defs><style>.cls-1{clip-path:url(#clippath);}.cls-2{fill:none;}.cls-2,.cls-3{stroke-width:0px;}.cls-3{fill:#fff;}</style><clipPath id="clippath"><rect class="cls-2" x="-1912.98" y="1164.99" width="1789.88" height="659.43" transform="translate(-1656.19 -197.42) rotate(-54.92)"/></clipPath></defs><g class="cls-1"><image width="5000" height="2500" transform="translate(-4071.82 4122.13) rotate(-54.92) scale(1.06)" xlink:href="../Downloads/White.png"/></g><path class="cls-3" d="m100.92,289.93v28.48c0,76.09,25.73,149.94,73.02,209.55h0c47.29-59.61,73.02-133.46,73.02-209.55V78.33H100.92v211.61Z"/><path class="cls-3" d="m.04,29.04c4.05,45.34,19.05,139.68,74.62,216.57V78.33L17.32,20.98C10.62,14.29-.8,19.61.04,29.04Z"/><path class="cls-3" d="m325.35,20.98l-57.34,57.34v167.28c55.57-76.89,70.57-171.24,74.62-216.57.84-9.43-10.58-14.75-17.28-8.06Z"/><path class="cls-3" d="m234.87,14.89L176.75.43c-2.33-.58-4.76-.58-7.09,0l-58.12,14.46v41.3h123.32V14.89Z"/></svg>